<?xml version="1.0" standalone="no"?>
<!DOCTYPE svg PUBLIC "-//W3C//DTD SVG 20010904//EN"
 "http://www.w3.org/TR/2001/REC-SVG-20010904/DTD/svg10.dtd">
<svg version="1.0" xmlns="http://www.w3.org/2000/svg"
 width="8192.000000pt" height="8192.000000pt" viewBox="0 0 8192.000000 8192.000000"
 preserveAspectRatio="xMidYMid meet">

<g transform="translate(0.000000,8192.000000) scale(0.100000,-0.100000)"
fill="#000000" stroke="none">
<path d="M40605 77543 c-529 -24 -1047 -136 -1580 -341 -210 -80 -363 -149
-960 -432 -1575 -746 -2975 -1389 -6545 -3007 -2549 -1156 -3156 -1427 -6990
-3128 -5052 -2240 -7289 -3255 -9885 -4485 -984 -466 -1150 -560 -1493 -840
-599 -488 -954 -1157 -1056 -1990 -36 -290 -37 -421 -26 -2169 24 -3883 31
-6734 36 -14096 4 -8324 4 -8314 59 -9455 196 -4053 924 -7480 2232 -10510
490 -1135 1279 -2646 2089 -3997 1835 -3061 3884 -5527 6372 -7665 1780 -1530
3909 -3108 6962 -5160 1084 -729 1751 -1135 3905 -2378 2066 -1192 2906 -1663
3980 -2233 767 -405 1873 -960 2208 -1106 307 -134 645 -220 981 -252 175 -16
501 -6 676 20 248 38 539 121 775 220 133 56 941 458 1330 661 1031 539 2124
1152 3430 1925 857 508 3296 1977 3620 2181 649 409 1389 921 2440 1690 226
165 595 435 820 600 502 367 944 683 1340 959 1424 990 2708 1996 4070 3189
636 558 1072 961 1328 1230 500 525 806 888 1662 1976 439 558 592 748 945
1170 464 557 820 1008 1157 1470 3043 4164 4766 9063 5203 14795 63 831 104
1768 142 3285 20 769 17 4497 -5 6080 -22 1626 -37 3048 -37 3653 l0 477 -48
0 -49 0 -6 2078 c-10 3151 -8 7820 4 9182 6 668 12 1460 12 1760 2 591 -1 648
-58 940 -131 672 -465 1180 -1047 1593 -127 90 -341 217 -508 302 -80 40 -926
420 -1880 845 -9420 4192 -15941 7124 -22435 10088 -506 231 -999 451 -1095
489 -706 283 -1426 417 -2075 386z m520 -4733 c509 -44 1011 -164 1514 -364
79 -32 657 -291 1285 -578 7472 -3406 13432 -6045 18676 -8268 909 -385 1074
-462 1350 -625 282 -167 477 -313 673 -505 222 -216 356 -399 487 -665 176
-359 270 -743 311 -1280 14 -185 14 -657 0 -1515 -16 -982 -30 -2241 -41
-3735 -13 -1734 -13 -7150 0 -10390 16 -4102 17 -7701 2 -8030 -26 -579 -47
-906 -88 -1355 -237 -2610 -892 -5081 -1979 -7465 -153 -335 -545 -1119 -719
-1438 -997 -1824 -2207 -3516 -3695 -5167 -562 -623 -1184 -1224 -2066 -1995
-132 -116 -541 -469 -909 -785 -369 -315 -776 -667 -905 -780 -217 -190 -330
-291 -830 -744 -1386 -1254 -3118 -2514 -5411 -3938 -1096 -680 -1497 -915
-3035 -1773 -1801 -1005 -2640 -1524 -3535 -2185 -278 -206 -408 -278 -601
-334 -135 -39 -235 -49 -398 -43 -331 13 -552 104 -1122 459 -1027 641 -1953
1190 -3879 2298 -1920 1105 -2707 1566 -3540 2073 -1854 1129 -3243 2074
-4631 3153 -1774 1378 -3372 2859 -4737 4389 -2524 2829 -4382 5945 -5604
9395 -679 1917 -1064 3689 -1183 5440 -36 530 -39 792 -27 2219 14 1498 16
5645 5 8434 -6 1673 -7 1757 -24 1757 -17 0 -18 198 -16 4483 1 2465 0 5459
-3 6652 l-5 2170 26 116 c79 351 259 570 614 748 55 27 865 387 1800 799 8646
3812 13686 6082 18915 8517 1046 487 1201 552 1610 670 310 90 672 158 970
183 149 13 603 14 745 2z"/>
<path d="M40880 66884 c-2536 -120 -4637 -849 -6273 -2177 -424 -343 -878
-794 -1242 -1232 -254 -306 -591 -783 -807 -1140 -194 -321 -436 -782 -585
-1114 -395 -881 -630 -1871 -727 -3061 -48 -587 -57 -886 -66 -2255 -8 -1258
-11 -1366 -46 -1606 -60 -424 -220 -638 -549 -734 -226 -66 -495 -85 -1205
-85 -559 0 -844 -10 -1069 -36 -514 -59 -840 -191 -1073 -433 -298 -308 -436
-756 -493 -1596 -66 -979 -112 -2202 -136 -3620 -13 -749 -6 -3826 10 -4875
14 -865 31 -2193 41 -3150 8 -763 9 -810 29 -894 23 -97 71 -217 123 -303 46
-76 183 -221 280 -293 197 -149 162 -131 4658 -2335 3388 -1661 4810 -2364
6855 -3392 429 -215 851 -421 939 -457 956 -398 1873 -438 2836 -124 355 116
539 199 1281 580 2520 1296 5515 2799 9049 4543 2061 1017 2047 1010 2226
1156 222 181 367 424 428 719 33 163 35 270 25 1296 -6 609 -8 1751 -3 2882
l6 1872 21 0 20 0 -6 2033 c-10 2814 -21 3507 -63 3967 -42 465 -155 1049
-266 1385 -186 561 -531 903 -1046 1036 -176 45 -328 62 -567 62 -229 0 -326
-7 -815 -58 -452 -47 -637 -59 -840 -52 -399 13 -639 105 -792 306 -195 257
-277 671 -249 1267 6 131 25 408 42 614 28 329 32 432 36 840 23 2251 -366
4042 -1193 5482 -295 514 -715 1122 -1105 1600 -396 485 -890 988 -1335 1359
-1339 1116 -2912 1776 -4689 1969 -401 43 -567 51 -1085 54 -278 2 -539 2
-580 0z m491 -4144 c1257 -105 2404 -576 3359 -1380 173 -146 514 -487 660
-660 629 -748 1041 -1622 1194 -2538 77 -456 94 -814 106 -2202 5 -586 14
-1177 21 -1315 21 -450 -3 -578 -130 -706 -64 -63 -114 -90 -226 -120 l-80
-22 -2622 3 c-1855 2 -2623 -1 -2623 -8 0 -8 -688 -12 -2337 -13 -3163 -4
-2833 -6 -2928 20 -257 69 -347 228 -439 776 -190 1128 -117 2292 239 3834
122 526 238 863 445 1287 278 572 601 1027 1044 1470 414 413 855 734 1366
993 692 351 1410 544 2200 591 171 10 574 5 751 -10z m159 -14516 c1054 -120
1818 -739 2035 -1649 111 -465 92 -1127 -50 -1705 -90 -365 -198 -645 -424
-1090 -183 -363 -270 -557 -359 -800 -161 -445 -264 -891 -316 -1375 -38 -346
-44 -818 -16 -1160 25 -295 29 -399 19 -506 -21 -243 -108 -385 -276 -450 -82
-31 -238 -37 -386 -14 -106 16 -128 16 -348 0 -376 -26 -751 -31 -887 -11
-198 29 -313 87 -396 197 -142 189 -184 525 -190 1533 -3 363 -7 501 -20 601
-78 620 -237 1099 -555 1673 -192 346 -296 606 -385 959 -111 446 -152 865
-143 1496 5 398 16 523 63 737 213 959 914 1507 2019 1580 166 11 441 4 615
-16z"/>
<path d="M26662 33563 c1 -873 -2 -1526 -9 -1663 -12 -265 -3 -417 32 -555 30
-118 95 -256 163 -345 70 -92 203 -215 313 -289 60 -40 364 -197 834 -431
4127 -2051 7607 -3787 10345 -5160 976 -489 1831 -912 1900 -939 503 -200 995
-211 1515 -36 217 73 328 124 701 323 1425 758 2935 1524 7974 4046 3394 1699
4124 2067 4260 2150 146 89 258 177 354 276 143 149 218 285 268 488 l21 87
-2 1735 c-2 954 -4 1735 -4 1736 -1 1 -247 -114 -547 -254 -558 -262 -1202
-583 -4805 -2397 -3572 -1799 -6122 -3079 -6335 -3180 -956 -455 -1656 -669
-2375 -726 -182 -14 -581 -6 -743 15 -367 49 -732 146 -1047 281 -294 125
-910 421 -2025 970 -388 191 -1481 729 -2430 1195 -949 467 -3203 1576 -5010
2465 -1807 889 -3300 1623 -3317 1631 l-33 14 2 -1437z"/>
</g>
</svg>
